<?xml version="1.0" standalone="no"?><svg xmlns="http://www.w3.org/2000/svg" viewBox="0 0 1440 320"><path fill="#DD3F31" fill-opacity="1" d="M0,192L40,202.7C80,213,160,235,240,229.3C320,224,400,192,480,181.3C560,171,640,181,720,208C800,235,880,277,960,282.7C1040,288,1120,256,1200,234.7C1280,213,1360,203,1400,197.3L1440,192L1440,320L1400,320C1360,320,1280,320,1200,320C1120,320,1040,320,960,320C880,320,800,320,720,320C640,320,560,320,480,320C400,320,320,320,240,320C160,320,80,320,40,320L0,320Z"></path></svg>